# xmcd
#
# Track frame offsets:
#	150
#	22091
#	55625
#	78246
#	100870
#	125125
#	148963
#	166335
#	193067
#	213627
#	253399
#	274827
#	302187
#	322508
#
# Disc length: 4598 seconds
#
# Revision: 3
# Processed by: cddbd v1.5.2PL0 Copyright (c) Steve Scherf et al.
# Submitted via: EasyCDDAExtractor 2010.6.0.0
#
DISCID=d011f40e
DTITLE=Various Artist - Blues Paradise vol.9
DYEAR=2002
DGENRE=Blues
TTITLE0=Lucky Peterson - Ta' Ta' You
TTITLE1=Vince Converse - Give It Everything You've
TTITLE2=George Thorogood and The Destroyers - As The Years Go Passing By
TTITLE3=Lefthand Freddy And The Aces - Have A Right To Love
TTITLE4=Scott Holt And Buddy Guy - Breaking Up Somebody's Home
TTITLE5=Outlaws - The Wheel
TTITLE6=Maggie Bell - If You Don't Know
TTITLE7=Hoopsnakes - Too Many Rainy Days
TTITLE8=Delgado Brothers - If I Don't Get Home
TTITLE9=Tino Gonzales - Texas
TTITLE10=Gerry Groom, Mick Taylor and Friends - Music Teacher
TTITLE11=Bugs Henderson - Living Legend
TTITLE12=Chuck Alvarez - Goodbye
TTITLE13=B.B. Kind and Tracy Chapman - The Thrill Is Gone
EXTD=YEAR: 2002
EXTT0=
EXTT1=
EXTT2=
EXTT3=
EXTT4=
EXTT5=
EXTT6=
EXTT7=
EXTT8=
EXTT9=
EXTT10=
EXTT11=
EXTT12=
EXTT13=
PLAYORDER=
